<svg height="512pt" viewBox="-2 0 512 512" width="512pt" xmlns="http://www.w3.org/2000/svg"><path d="m282.070312 333.640625h-25.898437c-4.347656 0-7.875-3.527344-7.875-7.875s3.527344-7.875 7.875-7.875h25.898437c3.648438 0 6.617188-2.96875 6.617188-6.617187v-18.410157c0-4.347656 3.527344-7.871093 7.875-7.871093 4.351562 0 7.875 3.523437 7.875 7.871093v18.410157c0 12.332031-10.035156 22.367187-22.367188 22.367187zm0 0" fill="#f4d06b"/><path d="m304.433594 215.679688h-15.746094v-69.976563c0-71.65625-58.300781-129.953125-129.957031-129.953125-71.660157 0-129.957031 58.296875-129.957031 129.953125v69.976563h-15.746094v-69.976563c0-80.339844 65.359375-145.703125 145.703125-145.703125s145.703125 65.363281 145.703125 145.703125zm0 0" fill="#f4d06b"/><path d="m184.152344 389.441406h15.609375c23.140625 0 41.902343 18.761719 41.902343 41.914063v80.640625h-165.882812v-80.640625c0-23.152344 18.773438-41.914063 41.914062-41.914063h15.609376" fill="#e55c5c"/><path d="m151.289062 389.441406h-33.59375c-23.140624 0-41.914062 18.761719-41.914062 41.914063v80.640625h33.597656v-80.640625c0-23.152344 18.773438-41.914063 41.910156-41.914063zm0 0" fill="#ce4141"/><path d="m158.730469 412.539062c-14.113281 0-25.546875-11.4375-25.546875-25.546874v-47.601563h51.09375v47.601563c0 14.109374-11.4375 25.546874-25.546875 25.546874zm0 0" fill="#ce8d77"/><path d="m264.832031 110.609375v147.53125c0 58.601563-47.503906 106.105469-106.101562 106.105469-58.601563 0-106.105469-47.503906-106.105469-106.105469v-106.101563" fill="#e5baa8"/><path d="m157.976562 364.242188c-29.003906-.195313-55.230468-12.035157-74.273437-31.070313-19.203125-19.207031-31.078125-45.726563-31.078125-75.03125v-106.105469h47.769531v106.105469c0 29.304687 6.527344 55.824219 17.085938 75.03125 10.394531 18.902344 24.683593 30.703125 40.496093 31.070313zm0 0" fill="#ce8d77"/><path d="m158.730469 313.625c-11.140625 0-22.277344-4.242188-30.757813-12.722656-3.074218-3.074219-3.074218-8.058594 0-11.132813 3.074219-3.078125 8.058594-3.078125 11.132813 0 10.824219 10.820313 28.425781 10.820313 39.246093 0 3.074219-3.078125 8.0625-3.078125 11.136719 0 3.074219 3.074219 3.074219 8.058594 0 11.132813-8.480469 8.480468-19.621093 12.722656-30.757812 12.722656zm0 0" fill="#ce8d77"/><g fill="#24465e"><path d="m205.710938 248.605469c-4.351563 0-7.875-3.527344-7.875-7.875v-23.96875c0-4.347657 3.523437-7.875 7.875-7.875 4.347656 0 7.871093 3.527343 7.871093 7.875v23.96875c0 4.351562-3.523437 7.875-7.871093 7.875zm0 0"/><path d="m111.75 248.605469c-4.347656 0-7.875-3.527344-7.875-7.875v-23.96875c0-4.347657 3.527344-7.875 7.875-7.875s7.875 3.527343 7.875 7.875v23.96875c0 4.351562-3.527344 7.875-7.875 7.875zm0 0"/><path d="m309.777344 15.464844c-17.019532-.050782-30.832032 13.726562-30.832032 30.734375 0-16.976563-13.761718-30.734375-30.734374-30.734375-16.976563 0-30.738282 13.757812-30.738282 30.734375h-97.53125c-37.175781 0-67.316406 30.140625-67.316406 67.316406v85.21875c39.148438.839844 32.863281-46.695313 32.863281-46.695313h149.085938c58.097656 0 105.265625-46.8125 105.835937-104.777343.167969-17.070313-13.5625-31.746094-30.632812-31.796875zm0 0"/></g><path d="m255.539062 16.480469c-2.507812-.660157-5.140624-1.015625-7.855468-1.015625-16.976563 0-30.738282 13.761718-30.738282 30.734375h15.714844c0-14.257813 9.710938-26.246094 22.878906-29.71875zm0 0" fill="#183549"/><path d="m317.539062 16.480469c-2.507812-.660157-5.140624-1.015625-7.859374-1.015625-16.972657 0-30.734376 13.761718-30.734376 30.734375h15.714844c0-14.257813 9.710938-26.246094 22.878906-29.71875zm0 0" fill="#183549"/><path d="m119.941406 46.199219h26.9375c-37.171875 0-67.316406 30.140625-67.316406 67.316406v71.933594c-4.734375 7.691406-12.929688 13.585937-26.9375 13.289062v-85.222656c0-37.175781 30.140625-67.316406 67.316406-67.316406zm0 0" fill="#183549"/><path d="m52.625 210.433594v65.648437c0 10.097657-6.789062 18.605469-16.054688 21.203125-1.898437.542969-3.90625.828125-5.976562.828125h-8.5625c-12.167969 0-22.03125-9.863281-22.03125-22.03125v-65.648437c0-12.167969 9.867188-22.035156 22.03125-22.035156h8.5625c2.070312 0 4.078125.289062 5.976562.832031 9.269532 2.59375 16.054688 11.105469 16.054688 21.203125zm0 0" fill="#4a9cba"/><path d="m52.625 210.433594v65.648437c0 10.097657-6.789062 18.605469-16.054688 21.203125-9.265624-2.597656-16.054687-11.105468-16.054687-21.203125v-65.648437c0-10.097656 6.789063-18.609375 16.054687-21.203125 9.269532 2.59375 16.054688 11.105469 16.054688 21.203125zm0 0" fill="#75b2cc"/><path d="m317.460938 210.433594v65.648437c0 10.097657-6.789063 18.605469-16.054688 21.203125-1.898438.542969-3.90625.828125-5.976562.828125h-8.5625c-12.167969 0-22.03125-9.863281-22.03125-22.03125v-65.648437c0-12.167969 9.867187-22.035156 22.03125-22.035156h8.5625c2.070312 0 4.078124.289062 5.976562.832031 9.265625 2.59375 16.054688 11.105469 16.054688 21.203125zm0 0" fill="#4a9cba"/><path d="m317.460938 210.433594v65.648437c0 10.097657-6.789063 18.605469-16.054688 21.203125-9.265625-2.597656-16.054688-11.105468-16.054688-21.203125v-65.648437c0-10.097656 6.789063-18.609375 16.054688-21.203125 9.265625 2.59375 16.054688 11.105469 16.054688 21.203125zm0 0" fill="#75b2cc"/><path d="m365.609375 444.042969-31.550781 67.957031h-50.394532l31.550782-67.957031zm0 0" fill="#ce4141"/><path d="m365.609375 444.042969-31.550781 67.957031h-36.746094l31.550781-67.957031zm0 0" fill="#e55c5c"/><path d="m231.195312 307.035156h6.242188c10.347656 0 18.734375 8.386719 18.734375 18.730469s-8.386719 18.730469-18.734375 18.730469h-6.242188c-10.34375 0-18.730468-8.386719-18.730468-18.730469s8.386718-18.730469 18.730468-18.730469zm0 0" fill="#24465e"/><path d="m401.304688 406.242188h-57.035157c-16.046875 0-29.054687 13.007812-29.054687 29.054687v8.738281h86.089844c10.4375 0 18.898437-8.460937 18.898437-18.894531 0-10.4375-8.460937-18.898437-18.898437-18.898437zm0 0" fill="#e5baa8"/><path d="m508.382812 285.507812c0 45.804688-37.132812 82.9375-82.9375 82.9375-45.804687 0-82.9375-37.132812-82.9375-82.9375 0-45.804687 37.132813-82.9375 82.9375-82.9375 45.804688 0 82.9375 37.132813 82.9375 82.9375zm0 0" fill="#75b2cc"/><path d="m425.515625 255.136719c6.375 0 11.761719-4.792969 11.761719-10.46875 0-5.59375-5.386719-10.320313-11.761719-10.320313-6.558594 0-11.898437 4.628906-11.898437 10.320313 0 5.675781 5.449218 10.46875 11.898437 10.46875zm0 0" fill="#fff"/><path d="m425.515625 268.078125c-6.582031 0-11.183594 2.832031-11.183594 6.878906v54.691407c0 4.199218 5.785157 7.019531 11.183594 7.019531 5.929687 0 11.328125-3.347657 11.328125-7.019531v-54.691407c0-3.921875-4.867188-6.878906-11.328125-6.878906zm0 0" fill="#fff"/></svg>